<svg width="120" height="157" viewBox="0 0 120 157" fill="none" xmlns="http://www.w3.org/2000/svg">
<g filter="url(#filter0_d_781_1123)">
<path d="M78.1726 9.27158C80.6316 9.27158 82.9899 10.2484 84.7286 11.9872C86.4674 13.7259 87.4442 16.0842 87.4442 18.5432V129.802C87.4442 132.261 86.4674 134.619 84.7286 136.358C82.9899 138.097 80.6316 139.074 78.1726 139.074H22.5432C20.0842 139.074 17.7259 138.097 15.9872 136.358C14.2484 134.619 13.2716 132.261 13.2716 129.802V18.5432C13.2716 16.0842 14.2484 13.7259 15.9872 11.9872C17.7259 10.2484 20.0842 9.27158 22.5432 9.27158H78.1726ZM22.5432 0C17.6252 0 12.9087 1.95365 9.43116 5.43117C5.95365 8.90868 4 13.6252 4 18.5432V129.802C4 134.72 5.95365 139.437 9.43116 142.914C12.9087 146.392 17.6252 148.345 22.5432 148.345H78.1726C83.0906 148.345 87.8071 146.392 91.2846 142.914C94.7621 139.437 96.7158 134.72 96.7158 129.802V18.5432C96.7158 13.6252 94.7621 8.90868 91.2846 5.43117C87.8071 1.95365 83.0906 0 78.1726 0L22.5432 0Z" fill="white"/>
</g>
<g filter="url(#filter1_d_781_1123)">
<path d="M49.987 135.736C51.364 135.736 52.6847 135.189 53.6584 134.215C54.6321 133.242 55.1791 131.921 55.1791 130.544C55.1791 129.167 54.6321 127.846 53.6584 126.873C52.6847 125.899 51.364 125.352 49.987 125.352C48.61 125.352 47.2894 125.899 46.3156 126.873C45.3419 127.846 44.7949 129.167 44.7949 130.544C44.7949 131.921 45.3419 133.242 46.3156 134.215C47.2894 135.189 48.61 135.736 49.987 135.736Z" fill="white"/>
</g>
<g filter="url(#filter2_d_781_1123)">
<path d="M61.1907 71.9422C62.4435 68.0579 64.498 64.4865 67.2186 61.4642C67.4439 61.2146 67.7372 61.038 68.0616 60.9565C68.386 60.8749 68.727 60.8922 69.0418 61.0061L75.5326 63.3399C75.9936 63.505 76.4846 63.5673 76.9718 63.5226C77.459 63.4778 77.9308 63.327 78.3548 63.0805C78.7788 62.834 79.1449 62.4977 79.4281 62.0946C79.7112 61.6916 79.9046 61.2314 79.995 60.7457L81.2359 53.9179C81.2964 53.586 81.453 53.2797 81.6857 53.0377C81.9185 52.7957 82.217 52.6288 82.5436 52.5581C86.5085 51.7084 90.6058 51.7084 94.5707 52.5581C95.2389 52.7028 95.7543 53.238 95.8784 53.9179L97.1193 60.7457C97.2082 61.2322 97.4007 61.6934 97.6835 62.0973C97.9662 62.5013 98.3325 62.8383 98.757 63.085C99.1814 63.3317 99.6539 63.4823 100.142 63.5263C100.629 63.5704 101.121 63.5067 101.582 63.3399L108.073 61.0061C108.387 60.8922 108.728 60.8749 109.053 60.9565C109.377 61.038 109.67 61.2146 109.896 61.4642C112.614 64.4873 114.667 68.0585 115.919 71.9422C116.022 72.2633 116.028 72.6083 115.936 72.933C115.845 73.2577 115.659 73.5473 115.403 73.7648L110.144 78.254C109.769 78.5722 109.468 78.9693 109.262 79.4174C109.055 79.8655 108.948 80.3539 108.948 80.8482C108.948 81.3425 109.055 81.8309 109.262 82.279C109.468 82.7271 109.769 83.1242 110.144 83.4424L115.403 87.9316C115.928 88.38 116.129 89.0985 115.919 89.7542C114.668 93.6382 112.615 97.2095 109.896 100.232C109.67 100.482 109.377 100.658 109.053 100.74C108.728 100.821 108.387 100.804 108.073 100.69L101.582 98.3565C101.121 98.1914 100.63 98.129 100.143 98.1738C99.6553 98.2186 99.1835 98.3694 98.7595 98.6159C98.3355 98.8624 97.9694 99.1987 97.6863 99.6017C97.4031 100.005 97.2097 100.465 97.1193 100.951L95.8784 107.778C95.8182 108.111 95.6611 108.418 95.4274 108.661C95.1936 108.903 94.8937 109.069 94.5659 109.138C90.6026 109.988 86.5069 109.988 82.5436 109.138C82.2161 109.068 81.9166 108.902 81.6829 108.66C81.4492 108.418 81.292 108.111 81.2311 107.778L79.995 100.951C79.9061 100.464 79.7136 100.003 79.4308 99.5991C79.1481 99.1951 78.7818 98.8581 78.3574 98.6114C77.9329 98.3646 77.4605 98.2141 76.9727 98.17C76.485 98.126 75.9936 98.1897 75.5326 98.3565L69.0418 100.69C68.727 100.804 68.386 100.821 68.0616 100.74C67.7372 100.658 67.4439 100.482 67.2186 100.232C64.4997 97.2094 62.4468 93.6381 61.1955 89.7542C61.0922 89.4331 61.0861 89.0881 61.1779 88.7634C61.2697 88.4387 61.4553 88.1491 61.711 87.9316L66.9704 83.4424C67.3441 83.1237 67.6445 82.7265 67.8505 82.2784C68.0566 81.8304 68.1633 81.3423 68.1633 80.8482C68.1633 80.3541 68.0566 79.866 67.8505 79.418C67.6445 78.9699 67.3441 78.5727 66.9704 78.254L61.711 73.7648C61.4553 73.5473 61.2697 73.2577 61.1779 72.933C61.0861 72.6083 61.0875 72.2633 61.1907 71.9422ZM80.2002 80.8482C80.2002 83.0862 81.0802 85.2325 82.6465 86.815C84.2129 88.3975 86.3373 89.2865 88.5524 89.2865C90.7675 89.2865 92.8919 88.3975 94.4583 86.815C96.0246 85.2325 96.9045 83.0862 96.9045 80.8482C96.9045 78.6102 96.0246 76.4639 94.4583 74.8814C92.8919 73.2989 90.7675 72.4099 88.5524 72.4099C86.3373 72.4099 84.2129 73.2989 82.6465 74.8814C81.0802 76.4639 80.2002 78.6102 80.2002 80.8482Z" fill="white"/>
</g>
<g filter="url(#filter3_d_781_1123)">
<rect x="12.1582" y="114.226" width="76.3978" height="8.90072" fill="white"/>
</g>
<g filter="url(#filter4_d_781_1123)">
<path d="M19.6233 69.177C20.3851 66.8365 21.6345 64.6845 23.2889 62.8634C23.4259 62.713 23.6042 62.6065 23.8015 62.5574C23.9988 62.5083 24.2062 62.5187 24.3975 62.5873L28.3447 63.9936C28.625 64.0931 28.9236 64.1307 29.2199 64.1037C29.5161 64.0767 29.803 63.9858 30.0609 63.8373C30.3187 63.6888 30.5414 63.4861 30.7135 63.2433C30.8857 63.0004 31.0033 62.7231 31.0583 62.4304L31.8129 58.3163C31.8497 58.1163 31.9449 57.9317 32.0864 57.7859C32.228 57.6401 32.4095 57.5395 32.6081 57.4969C35.0192 56.9849 37.5108 56.9849 39.9219 57.4969C40.3282 57.5841 40.6417 57.9066 40.7171 58.3163L41.4717 62.4304C41.5258 62.7236 41.6428 63.0015 41.8148 63.2449C41.9868 63.4883 42.2095 63.6913 42.4676 63.84C42.7257 63.9887 43.013 64.0794 43.3096 64.106C43.6062 64.1325 43.905 64.0941 44.1854 63.9936L48.1325 62.5873C48.3239 62.5187 48.5313 62.5083 48.7285 62.5574C48.9258 62.6065 49.1042 62.713 49.2412 62.8634C50.8942 64.685 52.1426 66.8369 52.9039 69.177C52.9667 69.3705 52.9704 69.5784 52.9146 69.774C52.8587 69.9697 52.7459 70.1442 52.5904 70.2753L49.3921 72.9803C49.1644 73.172 48.9813 73.4113 48.8557 73.6813C48.7302 73.9514 48.6651 74.2456 48.6651 74.5435C48.6651 74.8413 48.7302 75.1356 48.8557 75.4056C48.9813 75.6757 49.1644 75.9149 49.3921 76.1066L52.5904 78.8117C52.9097 79.0819 53.0316 79.5148 52.9039 79.9099C52.143 82.2503 50.8946 84.4022 49.2412 86.2236C49.1042 86.374 48.9258 86.4804 48.7285 86.5295C48.5313 86.5786 48.3239 86.5682 48.1325 86.4996L44.1854 85.0934C43.905 84.9939 43.6064 84.9563 43.3102 84.9833C43.0139 85.0103 42.727 85.1011 42.4692 85.2497C42.2113 85.3982 41.9887 85.6008 41.8165 85.8437C41.6443 86.0865 41.5267 86.3638 41.4717 86.6565L40.7171 90.7707C40.6805 90.9712 40.585 91.1562 40.4428 91.3022C40.3007 91.4481 40.1183 91.5483 39.919 91.5901C37.5089 92.102 35.0183 92.102 32.6081 91.5901C32.409 91.548 32.2268 91.4476 32.0847 91.3018C31.9426 91.1559 31.847 90.9711 31.81 90.7707L31.0583 86.6565C31.0042 86.3634 30.8872 86.0855 30.7152 85.8421C30.5433 85.5987 30.3205 85.3956 30.0624 85.2469C29.8043 85.0983 29.517 85.0075 29.2204 84.981C28.9238 84.9545 28.625 84.9928 28.3447 85.0934L24.3975 86.4996C24.2062 86.5682 23.9988 86.5786 23.8015 86.5295C23.6042 86.4804 23.4259 86.374 23.2889 86.2236C21.6355 84.4022 20.3871 82.2502 19.6262 79.9099C19.5634 79.7164 19.5596 79.5086 19.6155 79.3129C19.6713 79.1173 19.7842 78.9427 19.9396 78.8117L23.138 76.1066C23.3652 75.9146 23.5479 75.6753 23.6731 75.4053C23.7984 75.1353 23.8633 74.8412 23.8633 74.5435C23.8633 74.2458 23.7984 73.9517 23.6731 73.6817C23.5479 73.4117 23.3652 73.1723 23.138 72.9803L19.9396 70.2753C19.7842 70.1442 19.6713 69.9697 19.6155 69.774C19.5596 69.5784 19.5605 69.3705 19.6233 69.177ZM31.1831 74.5435C31.1831 75.892 31.7182 77.1853 32.6707 78.1389C33.6232 79.0924 34.9151 79.6281 36.2621 79.6281C37.6092 79.6281 38.901 79.0924 39.8535 78.1389C40.806 77.1853 41.3411 75.892 41.3411 74.5435C41.3411 73.195 40.806 71.9017 39.8535 70.9481C38.901 69.9946 37.6092 69.4589 36.2621 69.4589C34.9151 69.4589 33.6232 69.9946 32.6707 70.9481C31.7182 71.9017 31.1831 73.195 31.1831 74.5435Z" fill="white"/>
</g>
<defs>
<filter id="filter0_d_781_1123" x="0" y="0" width="100.715" height="156.345" filterUnits="userSpaceOnUse" color-interpolation-filters="sRGB">
<feFlood flood-opacity="0" result="BackgroundImageFix"/>
<feColorMatrix in="SourceAlpha" type="matrix" values="0 0 0 0 0 0 0 0 0 0 0 0 0 0 0 0 0 0 127 0" result="hardAlpha"/>
<feOffset dy="4"/>
<feGaussianBlur stdDeviation="2"/>
<feComposite in2="hardAlpha" operator="out"/>
<feColorMatrix type="matrix" values="0 0 0 0 0 0 0 0 0 0 0 0 0 0 0 0 0 0 0.25 0"/>
<feBlend mode="normal" in2="BackgroundImageFix" result="effect1_dropShadow_781_1123"/>
<feBlend mode="normal" in="SourceGraphic" in2="effect1_dropShadow_781_1123" result="shape"/>
</filter>
<filter id="filter1_d_781_1123" x="40.7949" y="124.352" width="18.3848" height="18.3842" filterUnits="userSpaceOnUse" color-interpolation-filters="sRGB">
<feFlood flood-opacity="0" result="BackgroundImageFix"/>
<feColorMatrix in="SourceAlpha" type="matrix" values="0 0 0 0 0 0 0 0 0 0 0 0 0 0 0 0 0 0 127 0" result="hardAlpha"/>
<feOffset dy="3"/>
<feGaussianBlur stdDeviation="2"/>
<feComposite in2="hardAlpha" operator="out"/>
<feColorMatrix type="matrix" values="0 0 0 0 0 0 0 0 0 0 0 0 0 0 0 0 0 0 0.25 0"/>
<feBlend mode="normal" in2="BackgroundImageFix" result="effect1_dropShadow_781_1123"/>
<feBlend mode="normal" in="SourceGraphic" in2="effect1_dropShadow_781_1123" result="shape"/>
</filter>
<filter id="filter2_d_781_1123" x="57.1113" y="50.9208" width="62.8906" height="65.8547" filterUnits="userSpaceOnUse" color-interpolation-filters="sRGB">
<feFlood flood-opacity="0" result="BackgroundImageFix"/>
<feColorMatrix in="SourceAlpha" type="matrix" values="0 0 0 0 0 0 0 0 0 0 0 0 0 0 0 0 0 0 127 0" result="hardAlpha"/>
<feOffset dy="3"/>
<feGaussianBlur stdDeviation="2"/>
<feComposite in2="hardAlpha" operator="out"/>
<feColorMatrix type="matrix" values="0 0 0 0 0 0 0 0 0 0 0 0 0 0 0 0 0 0 0.25 0"/>
<feBlend mode="normal" in2="BackgroundImageFix" result="effect1_dropShadow_781_1123"/>
<feBlend mode="normal" in="SourceGraphic" in2="effect1_dropShadow_781_1123" result="shape"/>
</filter>
<filter id="filter3_d_781_1123" x="8.1582" y="113.226" width="84.3984" height="16.9007" filterUnits="userSpaceOnUse" color-interpolation-filters="sRGB">
<feFlood flood-opacity="0" result="BackgroundImageFix"/>
<feColorMatrix in="SourceAlpha" type="matrix" values="0 0 0 0 0 0 0 0 0 0 0 0 0 0 0 0 0 0 127 0" result="hardAlpha"/>
<feOffset dy="3"/>
<feGaussianBlur stdDeviation="2"/>
<feComposite in2="hardAlpha" operator="out"/>
<feColorMatrix type="matrix" values="0 0 0 0 0 0 0 0 0 0 0 0 0 0 0 0 0 0 0.25 0"/>
<feBlend mode="normal" in2="BackgroundImageFix" result="effect1_dropShadow_781_1123"/>
<feBlend mode="normal" in="SourceGraphic" in2="effect1_dropShadow_781_1123" result="shape"/>
</filter>
<filter id="filter4_d_781_1123" x="15.5742" y="56.1129" width="41.3789" height="42.8611" filterUnits="userSpaceOnUse" color-interpolation-filters="sRGB">
<feFlood flood-opacity="0" result="BackgroundImageFix"/>
<feColorMatrix in="SourceAlpha" type="matrix" values="0 0 0 0 0 0 0 0 0 0 0 0 0 0 0 0 0 0 127 0" result="hardAlpha"/>
<feOffset dy="3"/>
<feGaussianBlur stdDeviation="2"/>
<feComposite in2="hardAlpha" operator="out"/>
<feColorMatrix type="matrix" values="0 0 0 0 0 0 0 0 0 0 0 0 0 0 0 0 0 0 0.25 0"/>
<feBlend mode="normal" in2="BackgroundImageFix" result="effect1_dropShadow_781_1123"/>
<feBlend mode="normal" in="SourceGraphic" in2="effect1_dropShadow_781_1123" result="shape"/>
</filter>
</defs>
</svg>
